<?xml version="1.0" encoding="UTF-8"?>
<svg version="1.1" xmlns="http://www.w3.org/2000/svg" width="986" height="261">
<path d="M0 0 C11.55 0 23.1 0 35 0 C35 13 35 13 34 15 C34.66 14.67 35.32 14.34 36 14 C36 12.68 36 11.36 36 10 C37.65 10 39.3 10 41 10 C41 8.35 41 6.7 41 5 C42.65 5 44.3 5 46 5 C46 3.35 46 1.7 46 0 C58.87 0 71.74 0 85 0 C85 1.65 85 3.3 85 5 C88.63 5 92.26 5 96 5 C96 6.32 96 7.64 96 9 C97.65 9.33 99.3 9.66 101 10 C101 13.3 101 16.6 101 20 C102.32 20 103.64 20 105 20 C105 21.65 105 23.3 105 25 C105.99 24.505 105.99 24.505 107 24 C107 22.68 107 21.36 107 20 C108.65 20 110.3 20 112 20 C111.87431641 19.04287109 111.87431641 19.04287109 111.74609375 18.06640625 C111.59333984 16.82697266 111.59333984 16.82697266 111.4375 15.5625 C111.28087891 14.32693359 111.28087891 14.32693359 111.12109375 13.06640625 C111.08113281 12.38449219 111.04117188 11.70257813 111 11 C112 10 112 10 114.5625 9.9375 C115.366875 9.958125 116.17125 9.97875 117 10 C117 8.35 117 6.7 117 5 C120.3 5 123.6 5 127 5 C127 3.35 127 1.7 127 0 C140.2 0 153.4 0 167 0 C167 1.32 167 2.64 167 4 C170.3 4.33 173.6 4.66 177 5 C177 8.3 177 11.6 177 15 C178.65 15 180.3 15 182 15 C182 16.65 182 18.3 182 20 C183.65 20 185.3 20 187 20 C187 24.95 187 29.9 187 35 C187.99 35 188.98 35 190 35 C190 85.82 190 136.64 190 189 C180.76 189 171.52 189 162 189 C161.97743551 174.57920998 161.95907706 160.15843163 161.94818783 145.73762798 C161.94296237 139.04195669 161.93599499 132.34629847 161.92456055 125.65063477 C161.91371976 119.19270007 161.90772062 112.73477758 161.90512276 106.27683449 C161.90327067 103.80920024 161.89965417 101.34156668 161.89426994 98.87393761 C161.88704376 95.42595331 161.88600973 91.97801991 161.88647461 88.5300293 C161.88287933 87.50288315 161.87928406 86.475737 161.87557983 85.41746521 C161.8769545 84.47937012 161.87832916 83.54127502 161.87974548 82.57475281 C161.87836279 81.35107262 161.87836279 81.35107262 161.87695217 80.10267162 C162 78 162 78 163 75 C161.02 75 159.04 75 157 75 C157 68.73 157 62.46 157 56 C155.68 55.67 154.36 55.34 153 55 C152.67 53.68 152.34 52.36 152 51 C150.68 50.67 149.36 50.34 148 50 C147.67 48.68 147.34 47.36 147 46 C145.35 45.67 143.7 45.34 142 45 C142 43.68 142 42.36 142 41 C138.37 40.67 134.74 40.34 131 40 C131 41.65 131 43.3 131 45 C127.7 45 124.4 45 121 45 C121.185625 46.464375 121.37125 47.92875 121.5625 49.4375 C121.75462854 50.95318071 121.91062197 52.47480724 122 54 C121.67 54.33 121.34 54.66 121 55 C119.35 55 117.7 55 116 55 C116 99.22 116 143.44 116 189 C104.45 189 92.9 189 81 189 C81 150.06 81 111.12 81 71 C79.35 70.67 77.7 70.34 76 70 C76 65.05 76 60.1 76 55 C74.35 55 72.7 55 71 55 C71 51.7 71 48.4 71 45 C67.7 45 64.4 45 61 45 C61 43.35 61 41.7 61 40 C57.37 40 53.74 40 50 40 C50 41.65 50 43.3 50 45 C48.35 45 46.7 45 45 45 C45 46.65 45 48.3 45 50 C43.35 50 41.7 50 40 50 C40 51.65 40 53.3 40 55 C38.35 55 36.7 55 35 55 C35 99.22 35 143.44 35 189 C23.45 189 11.9 189 0 189 C0 126.63 0 64.26 0 0 Z " fill="currentColor" transform="translate(793,67)"/>
<path d="M0 0 C19.8 0 39.6 0 60 0 C60 1.65 60 3.3 60 5 C63.3 5 66.6 5 70 5 C70 6.65 70 8.3 70 10 C73.63 10 77.26 10 81 10 C81 11.32 81 12.64 81 14 C82.65 14.33 84.3 14.66 86 15 C86 16.32 86 17.64 86 19 C87.65 19.33 89.3 19.66 91 20 C91 24.95 91 29.9 91 35 C89.35 35.33 87.7 35.66 86 36 C86 37.32 86 38.64 86 40 C84.35 40.33 82.7 40.66 81 41 C81 43.97 81 46.94 81 50 C79.35 50.33 77.7 50.66 76 51 C75.67 52.32 75.34 53.64 75 55 C70.38 55 65.76 55 61 55 C61 53.68 61 52.36 61 51 C59.35 50.67 57.7 50.34 56 50 C56 48.35 56 46.7 56 45 C52.7 45 49.4 45 46 45 C46 43.35 46 41.7 46 40 C37.42 40.33 28.84 40.66 20 41 C20 42.32 20 43.64 20 45 C17.525 45.495 17.525 45.495 15 46 C14.9175 46.61875 14.835 47.2375 14.75 47.875 C14 50 14 50 10 52 C10 55.96 10 59.92 10 64 C11.32 64.33 12.64 64.66 14 65 C14.33 66.32 14.66 67.64 15 69 C19.95 69.33 24.9 69.66 30 70 C30 71.65 30 73.3 30 75 C41.55 75 53.1 75 65 75 C65 76.65 65 78.3 65 80 C68.3 80 71.6 80 75 80 C75.33 81.32 75.66 82.64 76 84 C77.65 84.33 79.3 84.66 81 85 C81 87.97 81 90.94 81 94 C82.65 94.33 84.3 94.66 86 95 C86 98.3 86 101.6 86 105 C87.65 105 89.3 105 91 105 C91 123.15 91 141.3 91 160 C89.35 160 87.7 160 86 160 C86 162.97 86 165.94 86 169 C84.35 169.66 82.7 170.32 81 171 C81 173.64 81 176.28 81 179 C79.02 179.33 77.04 179.66 75 180 C74.67 181.65 74.34 183.3 74 185 C71.03 185 68.06 185 65 185 C65 186.32 65 187.64 65 189 C62.03 189 59.06 189 56 189 C56 189.99 56 190.98 56 192 C40.82 192 25.64 192 10 192 C10 191.01 10 190.02 10 189 C5.38 189 0.76 189 -4 189 C-4.33 188.01 -4.66 187.02 -5 186 C-7.97 185.67 -10.94 185.34 -14 185 C-14.33 183.68 -14.66 182.36 -15 181 C-17.49034386 179.70339566 -17.49034386 179.70339566 -20 179 C-20 177.68 -20 176.36 -20 175 C-21.65 174.67 -23.3 174.34 -25 174 C-25 172.68 -25 171.36 -25 170 C-25.99 170 -26.98 170 -28 170 C-28 163.4 -28 156.8 -28 150 C-27.01 150 -26.02 150 -25 150 C-25 146.7 -25 143.4 -25 140 C-23.35 140 -21.7 140 -20 140 C-20 136.7 -20 133.4 -20 130 C-15.38 130 -10.76 130 -6 130 C-5.505 131.98 -5.505 131.98 -5 134 C-3.68 134.33 -2.36 134.66 -1 135 C-0.505 136.98 -0.505 136.98 0 139 C1.32 139.33 2.64 139.66 4 140 C4.33 141.32 4.66 142.64 5 144 C7.97 144.33 10.94 144.66 14 145 C14.33 146.32 14.66 147.64 15 149 C18.3 149.33 21.6 149.66 25 150 C25 151.65 25 153.3 25 155 C28.63 155 32.26 155 36 155 C36 153.35 36 151.7 36 150 C40.95 150 45.9 150 51 150 C51 148.35 51 146.7 51 145 C52.65 145 54.3 145 56 145 C56 138.4 56 131.8 56 125 C54.35 125 52.7 125 51 125 C51 123.35 51 121.7 51 120 C49.35 120 47.7 120 46 120 C46 118.35 46 116.7 46 115 C34.45 115 22.9 115 11 115 C11 113.35 11 111.7 11 110 C5.72 110 0.44 110 -5 110 C-5 108.68 -5 107.36 -5 106 C-8.3 105.67 -11.6 105.34 -15 105 C-15 101.7 -15 98.4 -15 95 C-16.65 95 -18.3 95 -20 95 C-20 91.7 -20 88.4 -20 85 C-21.65 85 -23.3 85 -25 85 C-25 68.5 -25 52 -25 35 C-23.35 35 -21.7 35 -20 35 C-20 30.05 -20 25.1 -20 20 C-18.35 19.67 -16.7 19.34 -15 19 C-15 17.68 -15 16.36 -15 15 C-13.35 14.67 -11.7 14.34 -10 14 C-10 12.68 -10 11.36 -10 10 C-8.35 9.67 -6.7 9.34 -5 9 C-5 7.68 -5 6.36 -5 5 C-3.35 4.67 -1.7 4.34 0 4 C0 2.68 0 1.36 0 0 Z " fill="currentColor" transform="translate(448,67)"/>
<path d="M0 0 C11.55 0 23.1 0 35 0 C35 44.55 35 89.1 35 135 C36.65 135 38.3 135 40 135 C40 138.3 40 141.6 40 145 C41.65 145 43.3 145 45 145 C45 146.65 45 148.3 45 150 C51.93 150 58.86 150 66 150 C66 148.35 66 146.7 66 145 C67.65 145 69.3 145 71 145 C71 143.35 71 141.7 71 140 C72.65 140 74.3 140 76 140 C76 136.7 76 133.4 76 130 C77.65 130 79.3 130 81 130 C81 87.1 81 44.2 81 0 C92.55 0 104.1 0 116 0 C116 62.37 116 124.74 116 189 C104.45 189 92.9 189 81 189 C81 182 81 182 82 180 C81.34 180.33 80.68 180.66 80 181 C79.34786708 183.02463255 79.34786708 183.02463255 79 185 C77.68 185 76.36 185 75 185 C75 186.32 75 187.64 75 189 C72.03 189 69.06 189 66 189 C66 189.99 66 190.98 66 192 C54.12 192 42.24 192 30 192 C30 191.01 30 190.02 30 189 C27.03 189 24.06 189 21 189 C21 187.68 21 186.36 21 185 C19.35 184.67 17.7 184.34 16 184 C16 182.68 16 181.36 16 180 C14.02 179.67 12.04 179.34 10 179 C10 176.03 10 173.06 10 170 C8.35 169.67 6.7 169.34 5 169 C5 164.38 5 159.76 5 155 C3.35 155 1.7 155 0 155 C0 103.85 0 52.7 0 0 Z " fill="currentColor" transform="translate(646,67)"/>
<path d="M0 0 C4.55522466 0.65168676 8.43813541 2.41831203 12.5625 4.359375 C13.29788498 4.69997452 14.03326996 5.04057404 14.79093933 5.39149475 C16.37222583 6.1244638 17.95240804 6.85981901 19.53158569 7.59732056 C23.72052758 9.55343756 27.91744719 11.49231653 32.11328125 13.43359375 C32.956595 13.82435593 33.79990875 14.2151181 34.66877747 14.61772156 C42.14722263 18.07919608 49.65998271 21.45937571 57.1875 24.8125 C70.51416222 30.7565181 83.76700977 36.85054173 97 43 C97.27455303 48.06751941 97.47266797 53.1306081 97.60424805 58.20385742 C97.65914534 59.92402618 97.73390283 61.6436917 97.82983398 63.36206055 C98.64495372 78.35241756 98.64495372 78.35241756 94.78369141 83.40771484 C92.13541356 86.28836491 89.12082792 88.64548058 86 91 C84.62629228 92.18744226 83.26054158 93.38421028 81.90625 94.59375 C81.27332031 95.13515625 80.64039063 95.6765625 79.98828125 96.234375 C75.97547728 99.79780799 72.2629041 103.67669616 68.5 107.5 C63.38611535 112.69596948 58.26431952 117.78341313 52.70898438 122.50976562 C50.98244552 123.92110215 50.98244552 123.92110215 49.76927471 125.57059193 C47.19401992 127.65115633 45.26435822 127.3690438 41.98262024 127.36076355 C40.09587082 127.36694954 40.09587082 127.36694954 38.17100525 127.3732605 C36.77456451 127.36264305 35.37812594 127.35173862 33.98168945 127.34057617 C32.5132855 127.33973008 31.04488027 127.34020469 29.57647705 127.34190369 C25.58700171 127.34276578 21.597796 127.32510553 17.60838342 127.30418181 C13.44036739 127.28545062 9.27234545 127.28366739 5.10429382 127.28010559 C-2.78988511 127.27077464 -10.68393967 127.2461467 -18.57806379 127.21605712 C-27.56464375 127.18254573 -36.55122959 127.16603532 -45.53785646 127.15097082 C-64.0253082 127.11959803 -82.51264411 127.06681718 -101 127 C-100.06047752 125.89489435 -99.11964732 124.7909004 -98.17828369 123.68736267 C-97.6545026 123.07245437 -97.13072151 122.45754606 -96.59106827 121.82400417 C-94.24303436 119.13221292 -91.75642537 116.59421104 -89.234375 114.06640625 C-88.71490295 113.5436058 -88.19543091 113.02080536 -87.66021729 112.48216248 C-86.57588478 111.39281879 -85.49024241 110.30477744 -84.40332031 109.21801758 C-82.73473007 107.54720977 -81.07433852 105.86851828 -79.4140625 104.18945312 C-78.35465512 103.12711683 -77.29477658 102.06525015 -76.234375 101.00390625 C-75.73854919 100.50089493 -75.24272339 99.99788361 -74.73187256 99.47962952 C-71.22886363 96 -71.22886363 96 -69 96 C-68.505 94.515 -68.505 94.515 -68 93 C-66.43359375 91.45703125 -66.43359375 91.45703125 -64.4375 89.8125 C-62.24593425 88.00015891 -60.20270727 86.23912723 -58.36089325 84.06639862 C-54.98916755 80.2278637 -52.4767702 77.53880541 -47.24157715 77.03796387 C-45.4651451 77.01504541 -43.6877953 77.03544468 -41.91210938 77.09179688 C-40.93558411 77.09062866 -39.95905884 77.08946045 -38.95294189 77.08825684 C-35.74839418 77.09379853 -32.54764139 77.15586568 -29.34375 77.21875 C-27.11317986 77.23368244 -24.88258336 77.24506472 -22.65197754 77.25305176 C-16.79873417 77.28350625 -10.94709476 77.3620137 -5.09448242 77.45068359 C0.88470769 77.53271826 6.86415858 77.56910098 12.84375 77.609375 C24.56320232 77.69501271 36.28146746 77.83144027 48 78 C48.00224799 73.15414016 47.96606302 68.31058782 47.89547729 63.46524048 C47.87677358 61.81985852 47.86825772 60.17432591 47.87045288 58.52883911 C48.22630265 46.67425338 48.22630265 46.67425338 42.72947693 36.64329529 C40.50122161 34.88192018 38.21215223 33.36642208 35.72802734 31.99169922 C33.04100624 30.44964218 30.7877016 28.44460648 28.4375 26.4375 C27.54933594 25.72464844 26.66117187 25.01179688 25.74609375 24.27734375 C22.21252553 21.34694507 18.86020866 18.23704624 15.5065918 15.10546875 C11.17727374 11.09019816 6.63907365 7.41300526 1.984375 3.77734375 C1.00210938 2.89755859 1.00210938 2.89755859 0 2 C0 1.34 0 0.68 0 0 Z " fill="currentColor" transform="translate(101,134)"/>
<path d="M0 0 C49.17 0 98.34 0 149 0 C149 3 149 3 147.63671875 4.4375 C146.99347656 4.953125 146.35023438 5.46875 145.6875 6 C140.12267611 10.66347917 135.09181813 15.83549106 130 21 C118.3788613 32.78704211 118.3788613 32.78704211 113.02000427 37.12745667 C110.92252609 38.92965088 110.92252609 38.92965088 109.46815491 41.2674408 C106.81495475 44.86640436 104.26738915 47.48836052 99.77180099 48.50279617 C92.80926396 49.29968672 85.80110324 49.03058626 78.80859375 48.87890625 C76.53461736 48.86210458 74.26060823 48.84930078 71.98658752 48.84031677 C66.02302922 48.80607587 60.06146736 48.71777508 54.09869385 48.61798096 C48.00552372 48.52564635 41.91202859 48.48475184 35.81835938 48.43945312 C23.87803267 48.34314718 11.93918283 48.18969291 0 48 C-0.1800958 53.21202626 -0.27202916 58.41598271 -0.28686523 63.63110352 C-0.30377043 65.39938709 -0.34362859 67.16762058 -0.40795898 68.93481445 C-1.04343799 80.06680435 -1.04343799 80.06680435 3.85189819 89.57382202 C7.00178757 92.43112885 10.42307415 94.71108097 14 97 C15.26383489 98.02864809 16.51191437 99.07777275 17.7265625 100.1640625 C23.61328668 105.16222454 29.53697705 110.09824684 35.5625 114.9296875 C38.19762454 117.16785418 40.65303925 119.46025319 43 122 C43 122.66 43 123.32 43 124 C38.14160731 122.49617793 33.63695488 120.54493724 29.04296875 118.39453125 C28.27481842 118.03830185 27.50666809 117.68207245 26.71524048 117.31504822 C24.20469776 116.1503004 21.69613161 114.98135745 19.1875 113.8125 C15.66487055 112.17664104 12.14112058 110.54320478 8.6171875 108.91015625 C7.72826309 108.49792816 6.83933868 108.08570007 5.92347717 107.66098022 C0.12941682 104.97696091 -5.6754653 102.31812517 -11.4921875 99.68359375 C-12.60641335 99.1788427 -12.60641335 99.1788427 -13.7431488 98.66389465 C-17.22341569 97.08854288 -20.70529891 95.51684802 -24.1887207 93.94848633 C-45.81129459 84.18870541 -45.81129459 84.18870541 -48 82 C-51.20097811 71.17598967 -52.62589738 58.57455636 -48 48 C-36.95844109 30.89879893 -19.12558146 16.8806812 -3.46533203 4.10864258 C-0.95858806 2.2413655 -0.95858806 2.2413655 0 0 Z " fill="currentColor" transform="translate(60,50)"/>
<path d="M0 0 C11.55 0 23.1 0 35 0 C35 71.61 35 143.22 35 217 C41.6 217 48.2 217 55 217 C55 230.86 55 244.72 55 259 C45.1 259 35.2 259 25 259 C25 258.01 25 257.02 25 256 C22.03 256 19.06 256 16 256 C15.67 255.01 15.34 254.02 15 253 C14.34 252.67 13.68 252.34 13 252 C11 251 11 251 10 248 C7.49552484 246.78130071 7.49552484 246.78130071 5 246 C5 243.03 5 240.06 5 237 C3.35 236.67 1.7 236.34 0 236 C0 158.12 0 80.24 0 0 Z " fill="currentColor" transform="translate(570,0)"/>
<path d="M0 0 C1.98 0.66 3.96 1.32 6 2 C6 2.99 6 3.98 6 5 C3.5625 4.1875 3.5625 4.1875 1 3 C0.67 2.01 0.34 1.02 0 0 Z " fill="#000000" transform="translate(105,174)"/>
</svg>
